<?xml version="1.0" encoding="UTF-8" standalone="no"?>
<!DOCTYPE svg PUBLIC "-//W3C//DTD SVG 1.1//EN"
 "http://www.w3.org/Graphics/SVG/1.1/DTD/svg11.dtd">
<!-- Generated by graphviz version 2.40.1 (20161225.0304)
 -->
<!-- Title: state transitions Pages: 1 -->
<svg width="369pt" height="422pt"
 viewBox="0.00 0.00 369.00 422.00" xmlns="http://www.w3.org/2000/svg" xmlns:xlink="http://www.w3.org/1999/xlink">
<g id="graph0" class="graph" transform="scale(1 1) rotate(0) translate(4 418)">
<title>state transitions</title>
<polygon fill="#ffffff" stroke="transparent" points="-4,4 -4,-418 365,-418 365,4 -4,4"/>
<g id="clust1" class="cluster state regular">
<title>cluster_state</title>
<path fill="none" stroke="#000000" stroke-width="2" d="M20,-8C20,-8 341,-8 341,-8 347,-8 353,-14 353,-20 353,-20 353,-394 353,-394 353,-400 347,-406 341,-406 341,-406 20,-406 20,-406 14,-406 8,-400 8,-394 8,-394 8,-20 8,-20 8,-14 14,-8 20,-8"/>
<text text-anchor="start" x="167.4944" y="-387.2" font-family="Helvetica,sans-Serif" font-size="12.00" fill="#000000">state</text>
</g>
<!-- state -->
<!-- S0 -->
<g id="node2" class="node state regular">
<title>S0</title>
<polygon fill="#ffffff" fill-opacity="0.003922" stroke="transparent" stroke-width="2" points="198,-368 142,-368 142,-332 198,-332 198,-368"/>
<text text-anchor="start" x="162.6632" y="-346.2" font-family="Helvetica,sans-Serif" font-size="12.00" fill="#000000">S0</text>
<path fill="none" stroke="#000000" stroke-width="2" d="M154.3333,-333C154.3333,-333 185.6667,-333 185.6667,-333 191.3333,-333 197,-338.6667 197,-344.3333 197,-344.3333 197,-355.6667 197,-355.6667 197,-361.3333 191.3333,-367 185.6667,-367 185.6667,-367 154.3333,-367 154.3333,-367 148.6667,-367 143,-361.3333 143,-355.6667 143,-355.6667 143,-344.3333 143,-344.3333 143,-338.6667 148.6667,-333 154.3333,-333"/>
</g>
<!-- S0&#45;&gt;state -->
<g id="edge3" class="edge transition">
<title>S0&#45;&gt;state</title>
<path fill="none" stroke="#ff0000" d="M141.9374,-348.2165C97.7676,-344.6298 17,-334.5747 17,-309 17,-309 17,-309 17,-241.5 17,-203.8794 38,-197.1206 38,-159.5 38,-159.5 38,-159.5 38,-45 38,-26.4053 102.5853,-18.9681 127.948,-16.7644"/>
<polygon fill="#ff0000" stroke="#ff0000" points="128.2222,-20.2538 137.9275,-16.0043 127.6906,-13.274 128.2222,-20.2538"/>
<text text-anchor="start" x="38" y="-189" font-family="Helvetica,sans-Serif" font-size="10.00" fill="#ff0000">not (in==1) &#160;&#160;</text>
<text text-anchor="start" x="38" y="-177" font-family="Helvetica,sans-Serif" font-size="10.00" fill="#ff0000">not (in==2) &#160;&#160;</text>
</g>
<!-- S1 -->
<g id="node3" class="node state regular">
<title>S1</title>
<polygon fill="#ffffff" fill-opacity="0.003922" stroke="transparent" stroke-width="2" points="250,-286 194,-286 194,-250 250,-250 250,-286"/>
<text text-anchor="start" x="214.6632" y="-264.2" font-family="Helvetica,sans-Serif" font-size="12.00" fill="#000000">S1</text>
<path fill="none" stroke="#000000" stroke-width="2" d="M206.3333,-251C206.3333,-251 237.6667,-251 237.6667,-251 243.3333,-251 249,-256.6667 249,-262.3333 249,-262.3333 249,-273.6667 249,-273.6667 249,-279.3333 243.3333,-285 237.6667,-285 237.6667,-285 206.3333,-285 206.3333,-285 200.6667,-285 195,-279.3333 195,-273.6667 195,-273.6667 195,-262.3333 195,-262.3333 195,-256.6667 200.6667,-251 206.3333,-251"/>
</g>
<!-- S0&#45;&gt;S1 -->
<g id="edge1" class="edge transition">
<title>S0&#45;&gt;S1</title>
<path fill="none" stroke="#000000" d="M181.5405,-331.8015C188.4074,-320.973 197.2474,-307.033 204.9119,-294.9466"/>
<polygon fill="#000000" stroke="#000000" points="208.0921,-296.4671 210.4918,-286.1476 202.1805,-292.7183 208.0921,-296.4671"/>
<text text-anchor="start" x="199" y="-306" font-family="Helvetica,sans-Serif" font-size="10.00" fill="#000000">in==1 &#160;&#160;</text>
</g>
<!-- S2 -->
<g id="node4" class="node state regular">
<title>S2</title>
<polygon fill="#ffffff" fill-opacity="0.003922" stroke="transparent" stroke-width="2" points="173,-204 117,-204 117,-168 173,-168 173,-204"/>
<text text-anchor="start" x="137.6632" y="-182.2" font-family="Helvetica,sans-Serif" font-size="12.00" fill="#000000">S2</text>
<path fill="none" stroke="#000000" stroke-width="2" d="M129.3333,-169C129.3333,-169 160.6667,-169 160.6667,-169 166.3333,-169 172,-174.6667 172,-180.3333 172,-180.3333 172,-191.6667 172,-191.6667 172,-197.3333 166.3333,-203 160.6667,-203 160.6667,-203 129.3333,-203 129.3333,-203 123.6667,-203 118,-197.3333 118,-191.6667 118,-191.6667 118,-180.3333 118,-180.3333 118,-174.6667 123.6667,-169 129.3333,-169"/>
</g>
<!-- S0&#45;&gt;S2 -->
<g id="edge2" class="edge transition">
<title>S0&#45;&gt;S2</title>
<path fill="none" stroke="#000000" d="M141.7832,-336.1789C121.7189,-325.0783 95.4496,-307.7677 78.648,-286 63.298,-266.1129 63.4359,-257.7274 59,-233 57.352,-223.8133 53.0658,-219.204 59,-212 70.8042,-197.6699 82.1914,-209.2485 100,-204 102.4012,-203.2923 104.8519,-202.5061 107.3084,-201.669"/>
<polygon fill="#000000" stroke="#000000" points="108.5161,-204.9542 116.7181,-198.2476 106.124,-198.3755 108.5161,-204.9542"/>
<text text-anchor="start" x="78" y="-265" font-family="Helvetica,sans-Serif" font-size="10.00" fill="#000000">in==2 &#160;&#160;</text>
</g>
<!-- S1&#45;&gt;state -->
<g id="edge6" class="edge transition">
<title>S1&#45;&gt;state</title>
<path fill="none" stroke="#ff0000" d="M207.3162,-249.8283C205.6938,-247.2941 204.1984,-244.6487 203,-242 201.311,-238.2667 201.6369,-237.0478 201,-233 193.071,-182.607 193,-169.5129 193,-118.5 193,-118.5 193,-118.5 193,-45 193,-25.0265 164.2675,-18.776 148.337,-16.8454"/>
<polygon fill="#ff0000" stroke="#ff0000" points="148.412,-13.3398 138.1578,-16.0048 147.8357,-20.316 148.412,-13.3398"/>
<text text-anchor="start" x="193" y="-142" font-family="Helvetica,sans-Serif" font-size="10.00" fill="#ff0000">not (in==1) &#160;&#160;</text>
<text text-anchor="start" x="193" y="-130" font-family="Helvetica,sans-Serif" font-size="10.00" fill="#ff0000">not (in==2) &#160;&#160;</text>
</g>
<!-- S1&#45;&gt;S2 -->
<g id="edge4" class="edge transition">
<title>S1&#45;&gt;S2</title>
<path fill="none" stroke="#000000" d="M193.5247,-256.3362C188.0605,-254.1758 182.3688,-251.9784 177,-250 154.8371,-241.8331 140.4217,-252.1879 126.648,-233 122.3635,-227.0314 122.8566,-219.9286 125.4564,-213.0755"/>
<polygon fill="#000000" stroke="#000000" points="128.6502,-214.5162 130.0568,-204.0152 122.4087,-211.347 128.6502,-214.5162"/>
<text text-anchor="start" x="126" y="-224" font-family="Helvetica,sans-Serif" font-size="10.00" fill="#000000">in==1 &#160;&#160;</text>
</g>
<!-- S3 -->
<g id="node5" class="node state regular">
<title>S3</title>
<polygon fill="#ffffff" fill-opacity="0.003922" stroke="transparent" stroke-width="2" points="301,-110 245,-110 245,-74 301,-74 301,-110"/>
<text text-anchor="start" x="265.6632" y="-88.2" font-family="Helvetica,sans-Serif" font-size="12.00" fill="#000000">S3</text>
<path fill="none" stroke="#000000" stroke-width="2" d="M257.3333,-75C257.3333,-75 288.6667,-75 288.6667,-75 294.3333,-75 300,-80.6667 300,-86.3333 300,-86.3333 300,-97.6667 300,-97.6667 300,-103.3333 294.3333,-109 288.6667,-109 288.6667,-109 257.3333,-109 257.3333,-109 251.6667,-109 246,-103.3333 246,-97.6667 246,-97.6667 246,-86.3333 246,-86.3333 246,-80.6667 251.6667,-75 257.3333,-75"/>
</g>
<!-- S1&#45;&gt;S3 -->
<g id="edge5" class="edge transition">
<title>S1&#45;&gt;S3</title>
<path fill="none" stroke="#000000" d="M211.4367,-249.6817C207.7272,-240.9837 205.1225,-230.4478 208,-221 218.9181,-185.1525 238.9132,-184.8447 255,-151 259.6404,-141.2372 263.4198,-130.0008 266.2958,-119.9706"/>
<polygon fill="#000000" stroke="#000000" points="269.742,-120.6333 268.9641,-110.067 262.983,-118.8122 269.742,-120.6333"/>
<text text-anchor="start" x="244" y="-183" font-family="Helvetica,sans-Serif" font-size="10.00" fill="#000000">in==2 &#160;&#160;</text>
</g>
<!-- S2&#45;&gt;state -->
<g id="edge9" class="edge transition">
<title>S2&#45;&gt;state</title>
<path fill="none" stroke="#ff0000" d="M129.1288,-167.9964C125.791,-162.8694 122.9783,-157.0287 122,-151 114.4454,-104.4465 128.4336,-48.3144 134.9359,-25.9226"/>
<polygon fill="#ff0000" stroke="#ff0000" points="138.3766,-26.6423 137.9814,-16.0548 131.6879,-24.5779 138.3766,-26.6423"/>
<text text-anchor="start" x="123" y="-95" font-family="Helvetica,sans-Serif" font-size="10.00" fill="#ff0000">not (in==1) &#160;&#160;</text>
<text text-anchor="start" x="123" y="-83" font-family="Helvetica,sans-Serif" font-size="10.00" fill="#ff0000">not (in==2) &#160;&#160;</text>
</g>
<!-- S2&#45;&gt;S0 -->
<g id="edge8" class="edge transition">
<title>S2&#45;&gt;S0</title>
<path fill="none" stroke="#000000" d="M125.3629,-204.0518C123.3351,-206.5674 121.4797,-209.2407 120,-212 115.5692,-220.2625 116.0537,-223.8287 118,-233 124.8946,-265.4887 141.4547,-299.909 154.0492,-322.939"/>
<polygon fill="#000000" stroke="#000000" points="151.0558,-324.7571 158.9935,-331.7746 157.1645,-321.3388 151.0558,-324.7571"/>
<text text-anchor="start" x="135" y="-265" font-family="Helvetica,sans-Serif" font-size="10.00" fill="#000000">in==2 &#160;&#160;</text>
</g>
<!-- S2&#45;&gt;S3 -->
<g id="edge7" class="edge transition">
<title>S2&#45;&gt;S3</title>
<path fill="none" stroke="#000000" d="M134.134,-167.7479C128.1678,-155.1083 123.6281,-138.5455 132.648,-127 145.1195,-111.0366 197.6135,-101.2931 234.7322,-96.2699"/>
<polygon fill="#000000" stroke="#000000" points="235.2783,-99.7285 244.7479,-94.977 234.382,-92.7861 235.2783,-99.7285"/>
<text text-anchor="start" x="132" y="-136" font-family="Helvetica,sans-Serif" font-size="10.00" fill="#000000">in==1 &#160;&#160;</text>
</g>
<!-- S3&#45;&gt;state -->
<g id="edge12" class="edge transition">
<title>S3&#45;&gt;state</title>
<path fill="none" stroke="#ff0000" d="M258.9763,-73.9405C245.4638,-57.9555 223.5049,-35.4404 199,-24 190.2806,-19.9292 163.6153,-17.6256 148.5865,-16.6182"/>
<polygon fill="#ff0000" stroke="#ff0000" points="148.3274,-13.0972 138.1398,-16.0065 147.9181,-20.0852 148.3274,-13.0972"/>
<text text-anchor="start" x="242" y="-48" font-family="Helvetica,sans-Serif" font-size="10.00" fill="#ff0000">not (in==1) &#160;&#160;</text>
<text text-anchor="start" x="242" y="-36" font-family="Helvetica,sans-Serif" font-size="10.00" fill="#ff0000">not (in==2) &#160;&#160;</text>
</g>
<!-- S3&#45;&gt;S0 -->
<g id="edge10" class="edge transition">
<title>S3&#45;&gt;S0</title>
<path fill="none" stroke="#000000" d="M297.5738,-110.0618C299.7002,-112.5107 301.5791,-115.1658 303,-118 327.6652,-167.1977 312,-186.4656 312,-241.5 312,-309 312,-309 312,-309 312,-330.6903 250.0712,-341.6132 208.0082,-346.5306"/>
<polygon fill="#000000" stroke="#000000" points="207.6112,-343.0531 198.0546,-347.6272 208.3778,-350.011 207.6112,-343.0531"/>
<text text-anchor="start" x="312" y="-224" font-family="Helvetica,sans-Serif" font-size="10.00" fill="#000000">in==1 &#160;&#160;</text>
</g>
<!-- S3&#45;&gt;S0 -->
<g id="edge11" class="edge transition">
<title>S3&#45;&gt;S0</title>
<path fill="none" stroke="#000000" d="M275.7475,-110.0666C277.9379,-125.4316 280.8261,-148.1046 282,-168 282.9424,-183.9722 285.6216,-188.4153 282,-204 280.0945,-212.1997 276.3314,-213.021 273.648,-221 264.2667,-248.8955 273.5826,-259.3946 261,-286 250.4019,-308.4093 227.558,-324.4352 207.4108,-334.8457"/>
<polygon fill="#000000" stroke="#000000" points="205.8546,-331.7106 198.3974,-339.2366 208.9202,-338.0036 205.8546,-331.7106"/>
<text text-anchor="start" x="273" y="-224" font-family="Helvetica,sans-Serif" font-size="10.00" fill="#000000">in==2 &#160;&#160;</text>
</g>
</g>
</svg>
